<svg width="32" height="32" viewBox="0 0 32 32" fill="none" xmlns="http://www.w3.org/2000/svg">
  <!-- Background Circle -->
  <circle cx="16" cy="16" r="15" fill="url(#gradient1)" stroke="#3B82F6" stroke-width="1"/>
  
  <!-- Microphone Icon -->
  <g transform="translate(10, 10)">
    <!-- Microphone Body -->
    <rect x="3" y="3" width="6" height="8" rx="3" fill="white"/>
    <!-- Microphone Stand -->
    <rect x="4" y="11" width="4" height="6" fill="white"/>
    <!-- Microphone Base -->
    <rect x="2" y="17" width="8" height="1" rx="0.5" fill="white"/>
  </g>
  
  <!-- AI Brain/Neural Network -->
  <g transform="translate(8, 8)">
    <!-- Main Brain Circle -->
    <circle cx="8" cy="8" r="6" fill="none" stroke="white" stroke-width="1" opacity="0.8"/>
    <!-- Neural Network Nodes -->
    <circle cx="5" cy="5" r="1" fill="white"/>
    <circle cx="11" cy="5" r="1" fill="white"/>
    <circle cx="5" cy="11" r="1" fill="white"/>
    <circle cx="11" cy="11" r="1" fill="white"/>
    <circle cx="8" cy="8" r="1" fill="white"/>
    <!-- Neural Network Connections -->
    <line x1="5" y1="5" x2="8" y2="8" stroke="white" stroke-width="0.5" opacity="0.6"/>
    <line x1="11" y1="5" x2="8" y2="8" stroke="white" stroke-width="0.5" opacity="0.6"/>
    <line x1="5" y1="11" x2="8" y2="8" stroke="white" stroke-width="0.5" opacity="0.6"/>
    <line x1="11" y1="11" x2="8" y2="8" stroke="white" stroke-width="0.5" opacity="0.6"/>
  </g>
  
  <!-- Gradients -->
  <defs>
    <linearGradient id="gradient1" x1="0%" y1="0%" x2="100%" y2="100%">
      <stop offset="0%" style="stop-color:#3B82F6;stop-opacity:1" />
      <stop offset="100%" style="stop-color:#1D4ED8;stop-opacity:1" />
    </linearGradient>
  </defs>
</svg>